<svg width="33" height="33" viewBox="0 0 33 33" fill="none" xmlns="http://www.w3.org/2000/svg">
<circle cx="16.5" cy="16.5" r="16.5" fill="#1E90FF"/>
<path d="M10.9268 13.2683L12.4604 16.0287C12.7242 16.5035 12.856 16.7409 12.856 17C12.856 17.2591 12.7242 17.4965 12.4604 17.9713L10.9268 20.7317C9.71753 22.9084 9.11288 23.9968 9.60131 24.5282C10.0897 25.0596 11.2251 24.5487 13.4959 23.5269L23.947 18.8238C25.6911 18.039 26.5631 17.6466 26.5631 17C26.5631 16.3534 25.6911 15.961 23.947 15.1762L13.4959 10.4731C11.2251 9.4513 10.0897 8.94038 9.60131 9.47179C9.11288 10.0032 9.71753 11.0916 10.9268 13.2683Z" fill="white"/>
</svg>
